<?xml version="1.0" encoding="UTF-8"?><svg id="a" xmlns="http://www.w3.org/2000/svg" viewBox="0 0 70 70"><defs><style>.b{fill:#fff;}</style></defs><path class="b" d="M5.27,6.51c1.05-.89,2.43-1.31,3.79-1.29,16.96,0,33.93,0,50.89,0,.72,0,1.45-.01,2.17,.1,1.22,.2,2.36,.83,3.18,1.74,.9,.97,1.39,2.27,1.47,3.58V48.1c-.05,1.44-.62,2.86-1.65,3.87-.81,.81-1.87,1.36-3,1.55-.84,.13-1.7,.09-2.54,.09-4.85,0-9.69,0-14.54,0,.83,2.48,1.65,4.96,2.48,7.44,1.99,0,3.99,0,5.98,0,.67-.03,1.35,.31,1.7,.89,.43,.68,.34,1.63-.21,2.22-.37,.42-.94,.63-1.5,.61-12.08,0-24.16,0-36.25,0-.67,0-1.42,.07-1.98-.38-.75-.54-.97-1.66-.47-2.44,.35-.59,1.03-.93,1.71-.9,1.99,0,3.99,0,5.98,0,.83-2.48,1.66-4.96,2.48-7.45-4.97,0-9.94,0-14.91,0-.99,0-2.01,.03-2.96-.29-1.67-.53-3.05-1.9-3.58-3.58-.18-.53-.24-1.1-.29-1.66V10.66c.07-1.59,.8-3.14,2.04-4.15Zm2.67,2.65c-.64,.33-1.02,1.05-.99,1.76,0,10.51,0,21.02,0,31.52h7.57c0-1.86,0-3.72,0-5.58-.02-.94,.77-1.81,1.72-1.85,1.01-.04,2.01,0,3.02-.01,.22-.53,.44-1.06,.66-1.59-.69-.7-1.41-1.39-2.09-2.1-.68-.7-.63-1.93,.08-2.59,1.59-1.6,3.19-3.19,4.78-4.78,.35-.35,.69-.74,1.18-.9,.66-.23,1.43-.04,1.92,.46,.68,.67,1.35,1.35,2.03,2.02,.53-.22,1.06-.44,1.59-.66,0-1.01-.02-2.01,.01-3.02,.04-.94,.9-1.73,1.84-1.72,2.49-.01,4.97-.01,7.46,0,.94-.02,1.8,.78,1.84,1.72,.03,1,0,2.01,.01,3.01,.53,.22,1.06,.44,1.6,.66,.73-.71,1.42-1.45,2.16-2.14,.71-.63,1.88-.55,2.53,.13,1.76,1.76,3.52,3.51,5.27,5.28,.69,.69,.67,1.92-.04,2.6-.67,.68-1.35,1.35-2.03,2.03,.22,.53,.44,1.06,.66,1.6,1,0,2-.02,3,.01,.94,.04,1.74,.9,1.73,1.84,.01,1.86,0,3.73,0,5.59h7.57c0-10.55,0-21.1,0-31.65,.02-1.04-.95-1.94-1.98-1.86-17.13,0-34.25,0-51.38,0-.58,.01-1.21-.07-1.74,.22Zm25.2,14.67c0,.79,.01,1.57,0,2.36,0,.57-.26,1.14-.72,1.49-.48,.35-1.07,.44-1.61,.63-.87,.29-1.67,.72-2.48,1.13-.65,.34-1.48,.24-2.03-.24-.64-.56-1.2-1.2-1.82-1.78-.86,.88-1.74,1.75-2.62,2.63,.58,.61,1.22,1.18,1.78,1.81,.51,.58,.58,1.47,.2,2.14-.45,.84-.89,1.7-1.17,2.62-.16,.52-.28,1.08-.66,1.5-.35,.39-.86,.59-1.38,.6-.79,.02-1.58,0-2.37,0v3.72h7.64c-.52-2.54,.07-5.29,1.63-7.37,1.37-1.87,3.46-3.2,5.74-3.63,1.91-.37,3.94-.12,5.7,.71,2.11,.99,3.82,2.8,4.69,4.96,.68,1.68,.83,3.55,.49,5.32h7.63v-3.72c-.79,0-1.58,.01-2.37,0-.48-.01-.97-.19-1.31-.54-.36-.35-.5-.85-.64-1.31-.27-.94-.68-1.84-1.16-2.7-.39-.62-.47-1.45-.05-2.08,.54-.76,1.33-1.32,1.91-2.04-.85-.89-1.74-1.73-2.6-2.62-.62,.58-1.18,1.22-1.82,1.78-.58,.51-1.46,.58-2.12,.2-.84-.46-1.71-.89-2.63-1.17-.52-.17-1.09-.28-1.5-.66-.39-.35-.59-.86-.6-1.38-.02-.79,0-1.58,0-2.36h-3.72Zm-.03,11.52c-1.33,.48-2.46,1.48-3.09,2.75-.69,1.33-.75,2.92-.3,4.34,3.52,.02,7.04,.02,10.56,0,.33-1.08,.4-2.25,.09-3.33-.4-1.47-1.44-2.76-2.79-3.45-1.36-.72-3.02-.82-4.46-.3ZM6.95,46.17c.03,.77-.06,1.55,.06,2.31,.2,.85,1.05,1.46,1.92,1.41,17.37,0,34.75,0,52.12,0,.9,.06,1.79-.6,1.95-1.49,.09-.74,.02-1.49,.04-2.23H6.95Zm19.46,14.89c5.72,0,11.45,0,17.17,0-.83-2.48-1.65-4.96-2.48-7.44h-12.21c-.83,2.48-1.66,4.96-2.48,7.44Z"/></svg>