<?xml version="1.0" encoding="UTF-8"?><svg id="a" xmlns="http://www.w3.org/2000/svg" viewBox="0 0 32 32"><defs><style>.b{fill:#fff;}.c{fill:#ef7b14;}</style></defs><circle class="b" cx="16" cy="16" r="14"/><g><path class="c" d="M20.35,10.7c-.53,0-.96,.43-.96,.96s.43,.96,.96,.96,.96-.43,.96-.96-.43-.96-.96-.96Z"/><path class="c" d="M16.07,11.94c-2.23,0-4.04,1.81-4.04,4.04s1.81,4.04,4.04,4.04,4.04-1.81,4.04-4.04-1.81-4.04-4.04-4.04Zm0,6.63c-1.43,0-2.59-1.16-2.59-2.59s1.16-2.59,2.59-2.59,2.59,1.16,2.59,2.59-1.16,2.59-2.59,2.59Z"/><path class="c" d="M19.28,24.19h-6.55c-2.72,0-4.93-2.21-4.93-4.93v-6.55c0-2.72,2.21-4.93,4.93-4.93h6.55c2.72,0,4.93,2.21,4.93,4.93v6.55c0,2.72-2.21,4.93-4.93,4.93Zm-6.55-14.87c-1.87,0-3.39,1.52-3.39,3.39v6.55c0,1.87,1.52,3.39,3.39,3.39h6.55c1.87,0,3.39-1.52,3.39-3.39v-6.55c0-1.87-1.52-3.39-3.39-3.39h-6.55Z"/></g></svg>