<?xml version="1.0" encoding="UTF-8"?><svg id="a" xmlns="http://www.w3.org/2000/svg" viewBox="0 0 70 70"><defs><style>.b{fill:#fff;stroke:#fff;stroke-miterlimit:10;stroke-width:.4px;}</style></defs><path class="b" d="M15.15,46.14c13.09-13.06,26.15-26.15,39.25-39.21,0,13.11,0,26.21,0,39.32,3.02,.01,6.04,0,9.05,0v16.81H6.55v-16.82c2.74,0,5.48,0,8.22,0,.13,0,.29,0,.38-.11Zm19.63-15.94c-5.34,5.36-10.71,10.68-16.03,16.06,3.07-.01,6.13,.02,9.2-.01,.79-.68,1.49-1.47,2.24-2.19,3.46-3.46,6.93-6.92,10.39-10.38,1.59-1.57,3.15-3.18,4.76-4.73,.02,5.77,0,11.55,.01,17.32,2.15-.01,4.31,0,6.46-.01,0-11.02,0-22.05,0-33.07-5.69,5.66-11.35,11.35-17.03,17.02Zm5.35,7.57c-2.82,2.83-5.65,5.65-8.47,8.49,3.7-.02,7.39,0,11.09,0,.01-3.7,0-7.39,0-11.09-.9,.85-1.75,1.74-2.62,2.61Zm-31.01,11.08c.02,3.87,0,7.75,0,11.62,3.02,0,6.03,0,9.05,0,0-2.15,.01-4.3,0-6.45,.86-.05,1.73,0,2.59-.02,.03,2.16-.02,4.32,.02,6.48,2.58-.03,5.16,0,7.74-.01,.02-2.16-.02-4.32,.02-6.48,.85,.01,1.71,0,2.56,0,.04,2.16,0,4.32,.02,6.48,2.58,0,5.17,0,7.75,0,.02-2.16-.01-4.32,.02-6.48,.85,0,1.71,.01,2.56,0,.04,2.16,0,4.32,.02,6.48,2.58,0,5.16-.01,7.74,0,.03-2.16,0-4.32,.02-6.48,.86,.02,1.73-.02,2.59,.02-.02,2.15,0,4.3,0,6.45,3.02,0,6.03,0,9.05,0,0-3.88,0-7.75,0-11.63-8.36-.03-16.73,0-25.09-.01-8.89,0-17.77-.02-26.65,.01Z"/></svg>