<?xml version="1.0" encoding="UTF-8"?><svg id="a" xmlns="http://www.w3.org/2000/svg" viewBox="0 0 55 55"><defs><style>.b{fill:#fff;}</style></defs><path class="b" d="M9.87,6.07C13.46,3.26,17.94,1.64,22.49,1.51c4.19-.14,8.41,.97,11.97,3.17,3.96,2.42,7.1,6.13,8.82,10.44,1.63,4.03,1.98,8.57,1.02,12.81-.57,2.55-1.63,4.99-3.07,7.18,3.69,3.69,7.38,7.38,11.07,11.07,1.44,1.45,1.6,3.94,.36,5.56-.77,1.06-2.04,1.73-3.35,1.76-1.19,.05-2.37-.43-3.21-1.27-3.67-3.66-7.33-7.33-11-10.99-3.63,2.41-7.99,3.69-12.35,3.59-4.32-.07-8.61-1.48-12.12-4-3.66-2.59-6.49-6.35-7.95-10.6-1.5-4.3-1.58-9.07-.23-13.42,1.29-4.23,3.93-8.03,7.42-10.74Zm11.6,2.02c-2.88,.31-5.65,1.49-7.88,3.32-2.71,2.2-4.62,5.35-5.29,8.77-.73,3.61-.09,7.48,1.79,10.65,1.94,3.33,5.2,5.86,8.9,6.91,3.22,.93,6.74,.75,9.85-.51,3.52-1.41,6.46-4.2,8.07-7.64,1.55-3.28,1.85-7.12,.84-10.6-1-3.52-3.33-6.63-6.41-8.6-2.89-1.87-6.44-2.69-9.87-2.3Z"/></svg>