<?xml version="1.0" encoding="utf-8"?>
<!-- Generator: Adobe Illustrator 26.1.0, SVG Export Plug-In . SVG Version: 6.00 Build 0)  -->
<svg version="1.1" id="a" xmlns="http://www.w3.org/2000/svg" xmlns:xlink="http://www.w3.org/1999/xlink" x="0px" y="0px"
	 viewBox="0 0 70 70" style="enable-background:new 0 0 70 70;" xml:space="preserve">
<style type="text/css">
	.st0{fill:#FFFFFF;}
</style>
<path class="st0" d="M17.3,7.6h26.1c1.2,0.1,2.5,0.6,3.3,1.5c0.8,0.9,1.3,2.1,1.3,3.3c0,5.2,0,10.5,0,15.7c3.7-3.7,7.4-7.4,11.1-11
	c1-1,2.4-1.5,3.8-1.3c1.4,0.1,2.7,0.8,3.5,1.9c0.6,0.8,1,1.8,1,2.8v0.4c0,0.8-0.3,1.6-0.7,2.2c-0.4,0.7-1,1.2-1.5,1.7
	c-3.3,3.3-6.6,6.6-9.8,9.8c-1.5,1.5-3,3.1-4.6,4.6c-0.9,0.8-1.8,1.6-2.7,2.3c0,5.3,0,10.7,0,16c0,0.7-0.1,1.4-0.4,2
	c-0.7,1.7-2.4,2.8-4.2,2.9H17.3c-1.4-0.1-2.9-0.8-3.7-2c-0.5-0.7-0.8-1.6-0.9-2.5V12.3c0.1-1.2,0.6-2.4,1.5-3.3
	C15,8.2,16.1,7.7,17.3,7.6L17.3,7.6z M15.9,12.4c0,15,0,30,0,45c0,0.7,0.4,1.3,1,1.6c0.4,0.2,0.9,0.1,1.3,0.1c8.2,0,16.4,0,24.6,0
	c0.4,0,0.8,0,1.2-0.1c0.6-0.2,1-0.8,1-1.5c0-4.7,0-9.4,0-14c-1.8,1-3.8,1.9-5.8,2.6c-0.2,0.1-0.5,0.1-0.7,0.1c-1.5,0-3.1,0-4.6,0
	c-0.5,0-0.9-0.2-1.2-0.5c-0.7-0.7-1.4-1.4-2.1-2.1c-0.7,0.7-1.4,1.4-2.1,2.1c-0.4,0.4-0.9,0.5-1.4,0.4c-0.7-0.1-1.2-0.8-1.3-1.5
	c0-0.9,0-1.8,0-2.7c-1.1,1.1-2.3,2.3-3.5,3.4c-0.2,0.2-0.5,0.5-0.8,0.7c-0.7,0.3-1.5,0-1.9-0.6c-0.4-0.6-0.4-1.5,0.2-2
	c2.2-2.1,4.4-4.3,6.5-6.4c0.4-0.4,1.1-0.6,1.7-0.4c0.6,0.2,1.1,0.8,1.1,1.5c0,0.8,0,1.7,0,2.5c0.3-0.3,0.6-0.7,1-0.8
	c0.6-0.2,1.3-0.1,1.8,0.3c0.9,0.9,1.8,1.8,2.7,2.7c1,0,2,0,3.1,0c1.6-4.4,4.2-8.4,7.5-11.7c0-6.1,0-12.2,0-18.4c0-0.4,0-0.8-0.1-1.2
	c-0.2-0.6-0.9-1-1.6-1c-8.5,0-17.1,0-25.6,0C16.6,10.8,15.8,11.6,15.9,12.4L15.9,12.4z M61.3,19.4c-4,4-8,8-12,12
	c-1,1-2.1,2.1-3.1,3.2c-2,2.2-3.6,4.6-4.9,7.2c2.2-1,4.3-2.4,6.1-4c1.2-1,2.2-2.1,3.3-3.2c4.3-4.3,8.6-8.5,12.8-12.8
	c0.5-0.5,0.6-1.4,0.2-2C63.3,18.8,62,18.7,61.3,19.4L61.3,19.4z"/>
<path class="st0" d="M21.8,14.1C22,14,22.2,14,22.4,14c2.1,0,4.1,0,6.2,0c0.9,0,1.6,0.8,1.6,1.6c0,0.8-0.7,1.6-1.6,1.6
	c-2.1,0-4.3,0-6.4,0c-0.7,0-1.4-0.5-1.6-1.3C20.4,15.2,21,14.3,21.8,14.1z"/>
<path class="st0" d="M15.3,23.8c0.2,0,0.3,0,0.5,0c4.3,0,8.6,0,12.8,0c0.8,0,1.5,0.7,1.6,1.5c0.1,0.9-0.7,1.7-1.6,1.7
	c-4.3,0-8.6,0-12.8,0c-0.7,0-1.3-0.4-1.6-1C13.8,25.1,14.3,24,15.3,23.8L15.3,23.8z"/>
<path class="st0" d="M15.4,30.2c0.2,0,0.5,0,0.7,0c4.2,0,8.3,0,12.5,0c0.9,0,1.6,0.8,1.6,1.6c0,0.8-0.8,1.6-1.6,1.6
	c-4.3,0-8.6,0-12.9,0c-0.8,0-1.5-0.6-1.6-1.4C13.9,31.2,14.5,30.4,15.4,30.2L15.4,30.2z"/>
<path class="st0" d="M21.9,52.8c0.2,0,0.5,0,0.7,0c2,0,4,0,6,0c0.8,0,1.6,0.7,1.6,1.5c0.1,0.9-0.7,1.7-1.6,1.7c-2.1,0-4.3,0-6.4,0
	c-0.8,0-1.5-0.6-1.6-1.4C20.5,53.7,21.1,52.9,21.9,52.8L21.9,52.8z"/>
</svg>
