<?xml version="1.0" encoding="UTF-8"?><svg id="a" xmlns="http://www.w3.org/2000/svg" viewBox="0 0 70 70"><defs><style>.b{fill:#fff;}</style></defs><path class="b" d="M29.48,1.05h.65c1.66,.14,3.26,.98,4.28,2.31,1.2,1.52,1.58,3.65,.97,5.49-.55,1.74-1.96,3.17-3.68,3.79,0,2.81,0,5.62,0,8.43,2.12,0,4.24,0,6.35,0,0-2.61,0-5.22,0-7.83-.02-1.05,.92-1.99,1.97-1.97,3.26,0,6.52,0,9.78,0,.57-1.59,1.83-2.91,3.4-3.54,1.65-.67,3.6-.55,5.15,.34,1.49,.83,2.59,2.33,2.91,4.01,.32,1.52,0,3.16-.86,4.45-.88,1.35-2.34,2.32-3.94,2.59-1.61,.3-3.32-.12-4.62-1.11-.93-.7-1.63-1.67-2.04-2.76-2.59,0-5.19,0-7.78,0,0,1.94,0,3.88,0,5.82,1.72,.01,3.45-.02,5.17,.01,.96,.04,1.8,.88,1.85,1.84,.03,1.24,0,2.49,.01,3.73,2.73,0,5.47,0,8.2,0,.58-1.58,1.82-2.9,3.38-3.53,1.76-.73,3.88-.53,5.47,.52,1.25,.8,2.18,2.09,2.54,3.53,.4,1.54,.14,3.24-.7,4.59-.94,1.55-2.63,2.62-4.44,2.8-1.71,.2-3.49-.41-4.73-1.6-.69-.64-1.19-1.45-1.52-2.33-2.73,0-5.47,0-8.2,0,0,3.02,0,6.03,0,9.05,1.1,0,2.2,0,3.3,0,.57-1.56,1.79-2.88,3.33-3.51,1.64-.7,3.6-.59,5.16,.28,1.62,.88,2.78,2.55,3.02,4.37,.23,1.55-.19,3.19-1.15,4.44-1.01,1.34-2.6,2.22-4.27,2.35-1.8,.16-3.65-.57-4.86-1.91-.55-.58-.95-1.29-1.24-2.03h-3.3c0,1.27,0,2.53,0,3.8,0,1-.87,1.9-1.87,1.94-1.7,.02-3.41,0-5.11,0,0,2.65,0,5.3,0,7.96,1.67,.6,3.05,1.96,3.63,3.65,.64,1.79,.35,3.88-.77,5.43-1.01,1.45-2.69,2.37-4.45,2.51h-.66c-1.87-.09-3.67-1.09-4.7-2.65-1.12-1.65-1.32-3.87-.51-5.69,.65-1.5,1.94-2.68,3.47-3.23,0-2.65,0-5.3,0-7.96-2.13,0-4.27,0-6.4,0,0,2.31,0,4.63,0,6.94,0,.52,.05,1.06-.18,1.54-.31,.7-1.05,1.18-1.81,1.17-3.26,.01-6.52,0-9.78,0-.77,2.19-2.9,3.82-5.22,3.95-2.09,.16-4.2-.89-5.35-2.63-1.05-1.55-1.3-3.61-.64-5.36,.58-1.61,1.91-2.94,3.52-3.53,1.48-.56,3.18-.49,4.61,.19,1.43,.66,2.54,1.93,3.09,3.4,2.6,0,5.19,.02,7.79-.02-.02-1.89,0-3.78,0-5.67-1.73,0-3.46,0-5.2,0-1.03,0-1.95-.9-1.95-1.93-.02-1.27,0-2.54,0-3.81-2.61,0-5.22,0-7.83,0-.76,2.13-2.78,3.75-5.05,3.94-1.81,.18-3.68-.52-4.91-1.86-1.2-1.26-1.8-3.06-1.58-4.79,.22-2.01,1.56-3.84,3.39-4.68,1.54-.73,3.39-.75,4.94-.05,1.49,.65,2.65,1.94,3.21,3.46,2.61,0,5.22,0,7.83,0,0-3.02,0-6.03,0-9.05-2.57,0-5.14,0-7.71,0-1.01,0-1.91-.86-1.95-1.87-.03-3.3,.02-6.6-.02-9.9-2.1-.73-3.69-2.72-3.92-4.94-.21-1.8,.45-3.68,1.76-4.93,1.21-1.2,2.97-1.83,4.67-1.67,1.86,.14,3.6,1.23,4.57,2.83,.98,1.58,1.15,3.63,.44,5.35-.62,1.56-1.95,2.8-3.53,3.38,0,2.59,0,5.19,0,7.78,1.9,0,3.79,0,5.69,0,.01-1.24-.01-2.48,0-3.71,.04-1.01,.95-1.87,1.96-1.87,1.73-.02,3.46,0,5.19,0,0-2.81,0-5.62,0-8.43-1.75-.63-3.18-2.1-3.71-3.89-.6-1.93-.12-4.14,1.22-5.65,1.06-1.23,2.63-1.96,4.25-2.04Zm-.26,4.04c-1.05,.25-1.75,1.45-1.4,2.48,.29,1.04,1.52,1.7,2.54,1.31,1.01-.32,1.61-1.55,1.22-2.54-.31-.94-1.4-1.52-2.35-1.25ZM12.38,11.34c-1.03,.25-1.72,1.43-1.4,2.45,.27,1.05,1.5,1.72,2.53,1.34,1-.31,1.62-1.49,1.26-2.48-.29-.97-1.41-1.6-2.39-1.31Zm42.57,0c-1.05,.25-1.75,1.44-1.41,2.47,.28,1.05,1.52,1.71,2.54,1.31,1-.32,1.61-1.53,1.22-2.52-.31-.94-1.4-1.54-2.35-1.27Zm-30.41,13.71c0,6.8,0,13.59,0,20.39,6.85,0,13.7,0,20.54,0,0-6.79,0-13.59,0-20.39-6.85,0-13.7,0-20.55,0Zm37.85,1.69c-1.03,.25-1.72,1.42-1.41,2.44,.26,1.03,1.45,1.72,2.47,1.37,1.01-.28,1.66-1.43,1.34-2.43-.26-1.01-1.4-1.67-2.4-1.37ZM6.4,39.83c-.96,.35-1.52,1.51-1.16,2.47,.31,.98,1.46,1.6,2.44,1.26,1.02-.28,1.67-1.48,1.32-2.48-.3-1.06-1.58-1.69-2.6-1.25Zm50.81,.03c-.94,.39-1.45,1.57-1.05,2.52,.36,1,1.6,1.57,2.58,1.13,.99-.37,1.53-1.6,1.1-2.57-.38-1.01-1.65-1.54-2.63-1.08ZM13.8,55.17c-1.05,.26-1.74,1.47-1.38,2.5,.29,.99,1.44,1.63,2.43,1.31,1.04-.27,1.71-1.48,1.34-2.5-.28-.98-1.41-1.61-2.39-1.31Zm25.77,5.91c-1.02,.26-1.71,1.42-1.39,2.44,.26,1.02,1.43,1.7,2.45,1.37,1.01-.27,1.68-1.43,1.36-2.43-.26-1.01-1.41-1.68-2.42-1.37Z"/><path class="b" d="M30,28.56c3.17-.04,6.35,0,9.52-.02,1.06-.03,2.01,.9,2,1.96,0,3.09,0,6.19,0,9.28,.03,1.07-.93,2.04-2,2-3.1,0-6.19,0-9.29,0-1.06,.01-1.99-.94-1.96-2,0-3.1,0-6.2,0-9.3,0-.95,.78-1.81,1.72-1.93Zm2.25,3.96c0,1.76,0,3.52,0,5.28,1.76,0,3.53,0,5.29,0,0-1.76,0-3.52,0-5.28-1.76,0-3.53,0-5.29,0Z"/></svg>