<?xml version="1.0" encoding="UTF-8"?><svg id="a" xmlns="http://www.w3.org/2000/svg" viewBox="0 0 28 28"><defs><style>.b{fill:#1d252c;}</style></defs><path class="b" d="M5.1,3.18C6.91,1.76,9.17,.94,11.47,.88c2.11-.07,4.25,.49,6.05,1.6,2,1.22,3.59,3.1,4.45,5.27,.82,2.04,1,4.33,.52,6.47-.29,1.29-.82,2.52-1.55,3.62,1.86,1.86,3.73,3.72,5.59,5.59,.73,.73,.81,1.99,.18,2.81-.39,.53-1.03,.87-1.69,.89-.6,.02-1.2-.22-1.62-.64-1.85-1.85-3.7-3.7-5.55-5.55-1.83,1.22-4.04,1.87-6.24,1.82-2.18-.04-4.35-.75-6.12-2.02-1.85-1.31-3.28-3.21-4.02-5.35-.76-2.17-.8-4.58-.12-6.78,.65-2.14,1.98-4.05,3.75-5.42Zm5.86,1.02c-1.45,.16-2.85,.75-3.98,1.68-1.37,1.11-2.33,2.7-2.67,4.43-.37,1.82-.05,3.78,.9,5.38,.98,1.68,2.62,2.96,4.5,3.49,1.62,.47,3.4,.38,4.97-.26,1.78-.71,3.26-2.12,4.07-3.86,.78-1.66,.93-3.6,.43-5.35-.5-1.78-1.68-3.35-3.24-4.34-1.46-.95-3.25-1.36-4.98-1.16Z"/></svg>