<?xml version="1.0" encoding="UTF-8"?><svg id="a" xmlns="http://www.w3.org/2000/svg" viewBox="0 0 70 70"><defs><style>.b{fill:#fff;}</style></defs><path class="b" d="M31.9,6.79c1.39-1.18,3.46-1.47,5.11-.69,1.87,.83,3.1,2.91,2.85,4.95-.17,1.85-1.51,3.48-3.24,4.11,0,1.2,0,2.4,0,3.61,3.17,.32,6.21,1.6,8.68,3.61,.89-.89,1.79-1.78,2.67-2.68-.15-.72-.14-1.49,.18-2.16,.51-1.15,1.72-1.95,2.98-1.94,1.31-.01,2.55,.86,3.02,2.07,.46,1.1,.21,2.44-.58,3.32-.79,.93-2.11,1.32-3.29,1.02-.9,.88-1.78,1.78-2.68,2.67,2.01,2.46,3.28,5.51,3.61,8.67,1.2,0,2.41,0,3.61,0,.56-1.5,1.85-2.71,3.41-3.1,2.08-.57,4.42,.46,5.46,2.34,1.06,1.8,.75,4.25-.7,5.74-1.22,1.31-3.19,1.87-4.9,1.34-1.5-.42-2.71-1.61-3.26-3.06-1.2,0-2.41,0-3.61,0-.33,3.16-1.6,6.21-3.61,8.67,.89,.89,1.78,1.78,2.67,2.67,.82-.18,1.71-.12,2.45,.33,1.08,.61,1.77,1.87,1.65,3.11-.1,1.31-1.08,2.49-2.33,2.85-1.05,.33-2.24,.04-3.06-.69-.93-.79-1.31-2.11-1.01-3.28-.88-.9-1.78-1.78-2.67-2.68-2.46,2.01-5.51,3.28-8.67,3.61,0,1.2,0,2.41,0,3.61,2.12,.75,3.57,3.04,3.2,5.28-.29,2.36-2.5,4.28-4.88,4.21-2.46,.02-4.69-2.07-4.83-4.52-.2-2.15,1.23-4.25,3.24-4.98,0-1.2,0-2.41,0-3.61-3.16-.33-6.21-1.6-8.67-3.61-.89,.89-1.78,1.78-2.67,2.67,.17,.8,.12,1.67-.3,2.39-.57,1.06-1.76,1.77-2.97,1.71-1.23-.03-2.38-.84-2.87-1.96-.51-1.11-.29-2.48,.51-3.4,.79-.96,2.13-1.36,3.32-1.06,.9-.88,1.78-1.78,2.67-2.67-2.01-2.46-3.29-5.51-3.61-8.67-1.2,0-2.41,0-3.61,0-.8,2.27-3.38,3.74-5.73,3.12-1.6-.37-2.97-1.6-3.5-3.16-.49-1.38-.3-2.99,.5-4.22,1-1.59,2.97-2.51,4.84-2.21,1.76,.25,3.28,1.54,3.89,3.2,1.2,0,2.41,0,3.61,0,.32-3.16,1.6-6.21,3.61-8.68-.89-.89-1.78-1.79-2.68-2.67-1.03,.25-2.17,.02-2.97-.7-1.11-.92-1.47-2.61-.8-3.9,.7-1.48,2.61-2.25,4.13-1.58,1.5,.58,2.36,2.32,1.94,3.87,.89,.89,1.78,1.78,2.67,2.67,2.46-2.01,5.51-3.29,8.67-3.61,0-1.2,0-2.41-.01-3.61-1.48-.56-2.68-1.82-3.08-3.36-.5-1.8,.17-3.84,1.62-5.01Zm2.79,2.16c-.88,.14-1.49,1.1-1.27,1.96,.16,.87,1.13,1.45,1.98,1.22,.9-.18,1.45-1.2,1.17-2.06-.21-.79-1.08-1.29-1.87-1.12Zm-.45,13.03c-4.71,.22-9.15,3.24-11.08,7.54-1.37,2.94-1.56,6.4-.57,9.49,.76,2.37,2.22,4.51,4.15,6.08,2.13,1.75,4.83,2.79,7.59,2.92,2.92,.16,5.88-.7,8.26-2.41,2.3-1.64,4.04-4.04,4.86-6.74,.9-2.89,.75-6.09-.41-8.88-1.11-2.68-3.14-4.97-5.68-6.38-2.15-1.21-4.66-1.77-7.13-1.62Zm-24.01,11.42c-1.24,.18-1.73,1.91-.83,2.75,.81,.88,2.48,.46,2.73-.73,.35-1.12-.76-2.31-1.9-2.02Zm48.89,0c-.93,.15-1.53,1.2-1.23,2.09,.23,.86,1.25,1.35,2.08,1.05,.82-.25,1.29-1.22,1.03-2.03-.22-.79-1.09-1.29-1.88-1.11Zm-24.44,24.44c-1.2,.17-1.72,1.8-.91,2.67,.78,.96,2.54,.58,2.8-.64,.36-1.12-.75-2.32-1.89-2.03Z"/><path class="b" d="M34.09,25.36c1.8-.59,3.85,.74,4.13,2.59,.34,1.75-1.03,3.57-2.8,3.77-1.7,.27-3.43-1.07-3.64-2.77-.26-1.55,.81-3.16,2.31-3.59Z"/><path class="b" d="M40.98,31.79c1.56-.29,3.21,.75,3.65,2.26,.41,1.24-.06,2.69-1.09,3.49-.96,.79-2.39,.95-3.49,.36-1.19-.6-1.95-1.97-1.76-3.31,.16-1.39,1.31-2.58,2.69-2.81Z"/><path class="b" d="M29.36,36.52c1.54-.57,3.39,.28,4.01,1.79,.51,1.1,.3,2.48-.5,3.39-.73,.88-1.95,1.34-3.08,1.11-1.43-.26-2.59-1.57-2.65-3.02-.1-1.43,.87-2.82,2.22-3.26Z"/></svg>