<?xml version="1.0" encoding="UTF-8"?><svg id="a" xmlns="http://www.w3.org/2000/svg" viewBox="0 0 70 70"><defs><style>.b{fill:#fff;}</style></defs><path class="b" d="M34.35,4.24c1.18-.45,2.6,.46,2.69,1.72,.04,1.49,.01,2.99,.01,4.48,0,1.05-.93,1.98-1.98,1.99-1.09,.07-2.12-.88-2.12-1.98-.01-1.41,0-2.83,0-4.24-.02-.87,.57-1.71,1.4-1.98Z"/><path class="b" d="M13.95,12.69c.72-.26,1.57-.07,2.1,.48,.99,.98,1.98,1.96,2.96,2.95,.57,.54,.78,1.41,.51,2.15-.26,.8-1.06,1.38-1.9,1.39-.57,.02-1.13-.22-1.53-.62-.96-.97-1.92-1.93-2.88-2.9-.42-.41-.67-.98-.65-1.57,.02-.83,.59-1.6,1.37-1.87Z"/><path class="b" d="M54.76,12.69c.9-.32,1.97,.13,2.41,.96,.43,.76,.3,1.78-.31,2.4-.93,.95-1.88,1.89-2.81,2.84-.45,.5-1.11,.82-1.78,.76-.93-.06-1.74-.82-1.87-1.74-.11-.66,.13-1.35,.62-1.81,.94-.94,1.88-1.87,2.82-2.81,.26-.26,.56-.5,.93-.6Z"/><path class="b" d="M24.44,19.83c3.2-2.25,7.12-3.43,11.03-3.32,4.06,.09,8.07,1.58,11.21,4.16,2.92,2.38,5.1,5.66,6.12,9.29,1.07,3.72,.92,7.78-.45,11.4-1.35,3.61-3.89,6.73-7.07,8.89,0,1.8,0,3.59,0,5.39,0,1.1-1.01,2.07-2.11,2.01-5.48,0-10.96,0-16.44,0-1.06,0-2.01-.94-2.01-2-.01-1.8,0-3.6,0-5.39-3.44-2.33-6.12-5.79-7.37-9.76-1.26-3.92-1.11-8.27,.38-12.11,1.32-3.43,3.69-6.45,6.71-8.54Zm5.08,1.87c-3.16,1.28-5.81,3.73-7.35,6.77-1.6,3.12-1.98,6.84-1.08,10.23,.93,3.57,3.33,6.73,6.49,8.62,.66,.34,1.2,.99,1.24,1.76,.03,1.48,0,2.96,.01,4.44,4.11,0,8.23,0,12.34,0,0-1.4,0-2.79,0-4.19,0-.47,.12-.94,.41-1.32,.37-.51,.98-.74,1.48-1.1,3.12-2.09,5.37-5.45,6.07-9.15,.66-3.37,.08-6.98-1.64-9.95-1.73-3.02-4.59-5.37-7.9-6.46-3.25-1.08-6.9-.97-10.07,.34Z"/><path class="b" d="M33.86,24.79c.84-.09,1.81-.19,2.48,.44,.99,.79,.92,2.47-.1,3.19-.69,.58-1.64,.35-2.45,.54-2.05,.38-3.84,1.9-4.56,3.86-.3,.76-.38,1.58-.41,2.39-.07,1.08-1.13,1.96-2.2,1.85-1.01-.05-1.88-.97-1.9-1.98-.04-2.63,1.01-5.25,2.83-7.15,1.65-1.75,3.92-2.9,6.31-3.16Z"/><path class="b" d="M5.76,33c1.52-.09,3.04-.01,4.56-.04,1.05-.05,2.04,.83,2.1,1.88,.13,1.13-.85,2.23-1.99,2.22-1.45,0-2.9,0-4.35,0-1-.01-1.88-.86-1.96-1.85-.13-1.02,.63-2.04,1.64-2.22Z"/><path class="b" d="M59.27,32.99c1.47-.07,2.96,0,4.44-.03,.76-.05,1.52,.34,1.91,1,.43,.69,.38,1.64-.12,2.29-.38,.52-1.02,.83-1.66,.82-1.41,0-2.82,0-4.23,0-1.02,.01-1.94-.85-2.01-1.86-.12-1.03,.66-2.05,1.68-2.22Z"/><path class="b" d="M17.05,50.46c.88-.25,1.89,.18,2.32,.98,.44,.76,.31,1.8-.31,2.42-1.02,1.03-2.06,2.05-3.08,3.08-.48,.48-1.2,.7-1.86,.56-.79-.16-1.44-.81-1.6-1.6-.14-.67,.07-1.4,.56-1.87,.98-.98,1.96-1.97,2.94-2.95,.28-.29,.63-.52,1.02-.62Z"/><path class="b" d="M51.95,50.45c.7-.18,1.48,.05,1.98,.57,1.03,1.03,2.05,2.06,3.08,3.09,.74,.76,.71,2.1-.06,2.84-.74,.77-2.08,.81-2.84,.06-1.05-1.05-2.1-2.09-3.15-3.14-.68-.68-.76-1.84-.2-2.61,.28-.4,.71-.7,1.19-.81Z"/><path class="b" d="M30.35,61.81c.2-.05,.41-.05,.61-.05,2.74,0,5.48,0,8.22,0,1.09-.01,2.06,.98,2.02,2.07,.01,1.07-.93,2.04-2.01,2.03-2.79,.01-5.58,0-8.37,0-1.04,.02-1.99-.86-2.05-1.9-.1-.98,.62-1.94,1.57-2.16Z"/></svg>