<?xml version="1.0" encoding="UTF-8"?><svg id="a" xmlns="http://www.w3.org/2000/svg" viewBox="0 0 70 70"><defs><style>.b{fill:#fff;}</style></defs><path class="b" d="M11.1,7.85c.64-.09,1.29-.06,1.93-.06H56.72c.82,0,1.65-.04,2.46,.11,1.79,.33,3.41,1.49,4.3,3.08,.56,.98,.83,2.11,.82,3.23,0,13.9,0,27.81,0,41.71,.04,2.63-1.76,5.14-4.26,5.95-1.02,.38-2.12,.34-3.19,.33-14.74,0-29.48,0-44.22,0-.75,0-1.5,0-2.23-.21-2.08-.52-3.82-2.19-4.43-4.24-.23-.71-.29-1.47-.28-2.21,0-13.69,0-27.39,0-41.08-.02-.88,.09-1.78,.41-2.6,.78-2.11,2.77-3.71,5-4.01Zm-1.22,6.21c0,2.1,0,4.19,0,6.29H60.12c0-2.1,0-4.19,0-6.29,.01-.97-.75-1.89-1.71-2.05-.43-.06-.86-.03-1.29-.03-15.05,0-30.1,0-45.14,0-1.11-.03-2.11,.97-2.08,2.08Zm0,10.47c0,10.2,0,20.4,0,30.61,0,.39-.02,.78,.03,1.16,.16,.96,1.08,1.73,2.06,1.72,15.13,0,30.26,0,45.39,0,.48,0,.98,.04,1.43-.15,.77-.31,1.32-1.1,1.31-1.94,0-10.47,0-20.93,0-31.4H9.88Z"/><path class="b" d="M13.7,14.1c1.23-.26,2.5,.81,2.46,2.06,.03,1.21-1.16,2.26-2.36,2.07-1.01-.12-1.86-1.06-1.83-2.08-.02-.98,.75-1.9,1.72-2.05Z"/><path class="b" d="M19.97,14.1c1.23-.27,2.51,.8,2.48,2.06,.03,1.17-1.07,2.2-2.23,2.09-1.06-.05-1.98-1.02-1.95-2.09-.02-.98,.74-1.9,1.71-2.06Z"/><path class="b" d="M26.25,14.1c1.18-.26,2.41,.71,2.47,1.91,.11,1.11-.83,2.18-1.94,2.23-1.11,.1-2.19-.83-2.23-1.95-.09-1.03,.69-2.03,1.71-2.19Z"/><path class="b" d="M15.79,28.75c.43-.06,.86-.03,1.29-.03,12.26,0,24.51,0,36.77,0,.8-.01,1.57,.5,1.89,1.23,.23,.47,.19,1.01,.19,1.52,0,6.76,0,13.52,0,20.28,.03,1.11-.98,2.12-2.09,2.09-12.56,0-25.12,0-37.68,0-1.11,.02-2.11-.98-2.08-2.09,0-6.98,0-13.96,0-20.94-.02-.98,.75-1.9,1.71-2.05Zm2.47,4.15v16.74H51.75v-16.74H18.26Z"/></svg>