<?xml version="1.0" encoding="UTF-8"?><svg id="a" xmlns="http://www.w3.org/2000/svg" viewBox="0 0 32 32"><defs><style>.b{fill:#fff;}.c{fill:#ef7b14;}</style></defs><path class="b" d="M30,16c0-7.73-6.27-14-14-14S2,8.27,2,16c0,6.99,5.12,12.78,11.81,13.83v-9.78h-3.55v-4.05h3.55v-3.08c0-3.51,2.09-5.45,5.29-5.45,1.53,0,3.13,.27,3.13,.27v3.45h-1.77c-1.74,0-2.28,1.08-2.28,2.19v2.63h3.88l-.62,4.05h-3.26v9.78c6.69-1.05,11.81-6.84,11.81-13.83Z"/><path class="c" d="M21.45,20.05l.62-4.05h-3.88v-2.63c0-1.11,.54-2.19,2.28-2.19h1.77v-3.45s-1.6-.27-3.13-.27c-3.2,0-5.29,1.94-5.29,5.45v3.08h-3.55v4.05h3.55v9.78c.71,.11,1.44,.17,2.19,.17s1.47-.06,2.19-.17v-9.78h3.26Z"/></svg>