<?xml version="1.0" encoding="UTF-8"?><svg id="a" xmlns="http://www.w3.org/2000/svg" viewBox="0 0 70 70"><defs><style>.b{fill:#fff;}</style></defs><path class="b" d="M16.78,9.48c.23-.69,.95-1.16,1.68-1.12,11.06,0,22.13,0,33.19,0,.81-.05,1.61,.55,1.74,1.37,.07,.65,.01,1.31,.03,1.96,2.55,0,5.1,0,7.66,0,.49,0,1.02-.05,1.46,.21,.48,.25,.77,.74,.87,1.25V50.17c-.09,.49-.36,.97-.8,1.23-.49,.32-1.09,.24-1.64,.25-5.88,0-11.77,0-17.65,0v6.66c2.74,0,5.48,0,8.22,0,.63-.03,1.27,.31,1.56,.88,.43,.74,.14,1.78-.6,2.21-.49,.32-1.09,.24-1.64,.25-10.84,0-21.68,0-32.52,0-.89,.02-1.68-.78-1.66-1.66-.02-.88,.77-1.67,1.65-1.66,2.78-.01,5.56,0,8.34,0v-6.66c-6.14,0-12.29,0-18.43,0-.82,.01-1.53-.65-1.66-1.45V13.16c.11-.8,.83-1.48,1.65-1.47,2.82,0,5.63,0,8.45,0,.04-.73-.1-1.49,.09-2.21Zm3.24,2.21v3.33h30.08v-3.33H20.02Zm-10.1,3.33V48.32H60.08V15.02h-6.66c0,.6,.02,1.19,0,1.79-.04,.68-.54,1.3-1.2,1.47-.37,.1-.75,.06-1.12,.07-4.81,0-9.62,0-14.43,0v3.33c5.03,0,10.07,0,15.1,0,.88-.02,1.67,.77,1.66,1.65,0,2.23,0,4.45,0,6.68,.01,.88-.77,1.67-1.65,1.65-5.03,0-10.07,0-15.1,0,0,1.21,0,2.41,0,3.62,1.4,.5,2.54,1.64,3.04,3.04,5.13,0,10.26,0,15.39,0,.88-.01,1.67,.78,1.65,1.66,.02,.88-.77,1.68-1.65,1.66-5.13,0-10.26,0-15.39,0-.44,1.22-1.36,2.27-2.54,2.83-1.32,.65-2.94,.66-4.27,.03-1.2-.56-2.16-1.61-2.61-2.86-4.83,0-9.66,0-14.49,0-.52,0-1.08,.07-1.56-.2-.68-.35-1.05-1.2-.81-1.93,.19-.69,.87-1.2,1.59-1.2,5.09,0,10.19,0,15.28,0,.5-1.4,1.64-2.54,3.04-3.04,0-1.21,0-2.41,0-3.62-4.99,0-9.99,0-14.98,0-.88,.02-1.68-.77-1.66-1.65,0-2.23,0-4.45,0-6.68-.01-.88,.77-1.66,1.65-1.65,5,0,10,0,15,0v-3.33c-5,0-9.99,0-14.99,0-.8,0-1.55-.64-1.64-1.44-.05-.63,0-1.26-.02-1.89h-6.77Zm10.1,9.99v3.33h30.08v-3.33H20.02Zm14.68,13.35c-.88,.15-1.52,1.09-1.32,1.96,.16,.9,1.15,1.53,2.03,1.28,.86-.2,1.45-1.16,1.21-2.02-.19-.83-1.08-1.41-1.92-1.23Zm-4.69,13.29v6.66h9.99v-6.66h-9.99Z"/></svg>