<?xml version="1.0" encoding="UTF-8"?><svg id="a" xmlns="http://www.w3.org/2000/svg" viewBox="0 0 70 70"><defs><style>.b{fill:#fff;}</style></defs><path class="b" d="M34.75,3.62h.45c.66,.11,1.17,.56,1.72,.89,3.91,2.46,8.21,4.32,12.71,5.41,3.54,.88,7.21,1.24,10.86,1.18,.71-.05,1.45,.26,1.81,.89,.33,.5,.27,1.12,.27,1.69,0,7.03,0,14.06,0,21.08,0,4.99-1.19,9.98-3.45,14.43-2.16,4.28-5.3,8.07-9.12,10.98-4.29,3.31-9.45,5.43-14.8,6.21h-.36c-2.6-.38-5.17-1.05-7.59-2.07-6.88-2.83-12.7-8.14-16.16-14.72-2.4-4.51-3.66-9.61-3.67-14.71-.01-7.23,0-14.47,0-21.7,0-.35,.02-.71,.19-1.03,.31-.67,1.04-1.08,1.77-1.05,2.75,.04,5.5-.11,8.21-.59,5.78-.99,11.33-3.24,16.23-6.47,.29-.19,.6-.33,.94-.41Zm-9.45,8.68c-4.56,1.59-9.37,2.42-14.2,2.47,0,6.78-.01,13.56,0,20.35,.05,6.48,2.47,12.9,6.68,17.83,4.07,4.83,9.78,8.29,15.99,9.51,.56,.09,1.14,.3,1.71,.14,6.99-1.16,13.43-5.15,17.67-10.81,3.27-4.3,5.27-9.56,5.66-14.95,.1-1.31,.08-2.62,.08-3.93,0-6.05,0-12.09,0-18.14-8.43-.08-16.78-2.64-23.9-7.13-3.05,1.9-6.3,3.48-9.7,4.65Z"/><path class="b" d="M33.23,18.55c3.11-.33,6.31,.22,9.11,1.63,3.41,1.69,6.2,4.59,7.75,8.06,1.47,3.24,1.83,6.97,1.03,10.43-.77,3.42-2.68,6.57-5.33,8.85-2.65,2.31-6.06,3.73-9.57,3.98-3.57,.27-7.21-.66-10.21-2.61-3.07-1.98-5.45-5-6.64-8.45-1.2-3.43-1.22-7.26-.06-10.71,1.15-3.44,3.47-6.46,6.49-8.47,2.21-1.49,4.78-2.43,7.43-2.71Zm-1.29,3.95c-3.15,.76-5.98,2.78-7.74,5.51-1.56,2.37-2.27,5.28-2.02,8.1,.25,3.03,1.64,5.95,3.82,8.07,2.26-2.25,5.39-3.56,8.58-3.67-2.12-.15-4.17-1.22-5.44-2.94-1.01-1.32-1.54-3-1.48-4.66,.06-1.93,.92-3.82,2.34-5.12,1.37-1.29,3.25-2.02,5.13-1.98,1.77,.03,3.52,.72,4.83,1.92,1.51,1.37,2.41,3.39,2.41,5.43,0,1.96-.82,3.89-2.22,5.25-1.25,1.24-2.96,1.97-4.71,2.1,3.19,.1,6.32,1.42,8.59,3.67,1.54-1.53,2.71-3.43,3.32-5.52,.87-2.89,.67-6.08-.55-8.83-1.26-2.9-3.63-5.29-6.52-6.58-2.59-1.17-5.57-1.44-8.33-.76Zm2.6,7.01c-1.88,.2-3.38,2.02-3.2,3.91,.09,1.96,1.97,3.59,3.92,3.4,2-.09,3.66-2.05,3.4-4.04-.15-1.99-2.14-3.57-4.12-3.27Zm-5.51,16.88c3.67,1.96,8.28,1.95,11.95,0-1.71-1.47-3.98-2.27-6.23-2.2-2.08,.04-4.13,.84-5.72,2.19Z"/></svg>