<?xml version="1.0" encoding="UTF-8"?><svg id="a" xmlns="http://www.w3.org/2000/svg" viewBox="0 0 70 70"><defs><style>.b{fill:#fff;}</style></defs><path class="b" d="M12.27,7.64h26.11c1.25,.05,2.47,.6,3.33,1.52,.83,.88,1.3,2.07,1.3,3.28,0,5.23,0,10.47,0,15.7,3.69-3.68,7.38-7.36,11.07-11.04,.98-.97,2.41-1.47,3.78-1.35,1.36,.1,2.67,.78,3.49,1.87,.62,.79,.95,1.77,1,2.76v.36c-.05,.79-.27,1.56-.67,2.24-.38,.67-.96,1.18-1.5,1.72-3.28,3.27-6.56,6.55-9.84,9.82-1.54,1.52-3.05,3.07-4.61,4.57-.86,.82-1.78,1.57-2.73,2.29,0,5.35,0,10.7,0,16.05,0,.7-.12,1.4-.41,2.05-.71,1.66-2.42,2.81-4.22,2.88H12.27c-1.45-.06-2.86-.8-3.71-1.99-.53-.71-.82-1.58-.92-2.46V12.27c.05-1.22,.58-2.42,1.47-3.27,.84-.83,1.99-1.3,3.17-1.36Zm-1.42,4.8c0,15,0,30.01,0,45.01-.04,.66,.36,1.32,.98,1.57,.4,.18,.85,.13,1.27,.13,8.19,0,16.39,0,24.58,0,.39,0,.79,.03,1.16-.13,.58-.24,.98-.85,.98-1.47,0-4.68,0-9.36,0-14.05-1.83,1.05-3.76,1.93-5.77,2.61-.24,.09-.49,.12-.74,.11-1.54,0-3.07,0-4.61,0-.46,.01-.92-.15-1.24-.47-.7-.68-1.38-1.38-2.07-2.06-.69,.69-1.38,1.39-2.08,2.07-.37,.37-.93,.54-1.44,.43-.69-.13-1.25-.75-1.28-1.46-.02-.9,0-1.8-.01-2.7-1.15,1.13-2.3,2.26-3.45,3.4-.25,.25-.5,.53-.84,.66-.67,.3-1.53,.05-1.94-.56-.43-.61-.35-1.51,.18-2.03,2.17-2.14,4.35-4.28,6.53-6.42,.42-.43,1.1-.59,1.67-.37,.62,.21,1.07,.84,1.06,1.5,0,.85,0,1.7,0,2.55,.31-.29,.57-.65,.98-.81,.58-.25,1.3-.11,1.75,.34,.91,.91,1.83,1.82,2.74,2.74,1.02,0,2.04,0,3.06,0,1.62-4.37,4.22-8.35,7.49-11.67,0-6.12,0-12.24,0-18.36,0-.39,.03-.8-.13-1.16-.25-.62-.92-1.02-1.58-.98-8.55,0-17.09,0-25.64,0-.85-.03-1.62,.74-1.61,1.59Zm45.5,6.94c-3.99,3.98-7.99,7.97-11.98,11.95-1.04,1.05-2.12,2.08-3.13,3.17-1.96,2.15-3.62,4.57-4.88,7.19,2.21-1.05,4.27-2.42,6.14-4,1.17-1,2.24-2.11,3.33-3.19,4.28-4.27,8.56-8.54,12.84-12.81,.54-.52,.63-1.41,.21-2.03-.53-.83-1.83-.97-2.54-.29Z"/><path class="b" d="M21.79,14.1c.19-.05,.4-.05,.6-.05,2.07,0,4.14,0,6.21,0,.85-.01,1.61,.75,1.59,1.6,.01,.85-.74,1.62-1.59,1.6-2.14,0-4.28,0-6.43,0-.74,0-1.42-.55-1.56-1.27-.19-.81,.37-1.69,1.18-1.88Z"/><path class="b" d="M15.27,23.83c.16-.04,.33-.05,.49-.05,4.28,0,8.55,0,12.83,0,.81,0,1.54,.68,1.59,1.48,.09,.89-.69,1.73-1.59,1.72-4.28,0-8.56,0-12.84,0-.66,.04-1.32-.36-1.57-.98-.41-.86,.16-1.98,1.09-2.18Z"/><path class="b" d="M15.35,30.22c.24-.04,.48-.03,.73-.03,4.17,0,8.34,0,12.51,0,.85-.01,1.61,.75,1.59,1.61,.01,.85-.75,1.61-1.6,1.6-4.31,0-8.62,0-12.94,0-.77,0-1.48-.61-1.58-1.37-.14-.82,.47-1.66,1.28-1.8Z"/><path class="b" d="M21.87,52.77c.24-.04,.49-.03,.74-.03,1.99,0,3.98,0,5.98,0,.82-.02,1.56,.68,1.6,1.49,.08,.89-.7,1.73-1.59,1.71-2.14,0-4.28,0-6.42,0-.77,0-1.48-.61-1.58-1.37-.14-.82,.47-1.66,1.28-1.8Z"/></svg>